<svg width="1710" height="1010" viewBox="0 0 1710 1010" fill="none" xmlns="http://www.w3.org/2000/svg">
<mask id="mask0_5_70" style="mask-type:alpha" maskUnits="userSpaceOnUse" x="0" y="0" width="1710" height="1010">
<path fill-rule="evenodd" clip-rule="evenodd" d="M855 333.001V2H2V193H273V363.256C295.724 378.62 314.416 399.248 327.476 423.399C340.935 448.287 347.988 476.135 348 504.429C348.012 532.724 340.982 560.577 327.543 585.477C314.481 609.68 295.764 630.353 273 645.744V817H2V1008H855V677.999C854.833 678 854.667 678 854.5 678C759.231 678 682 600.769 682 505.5C682 410.231 759.231 333 854.5 333C854.667 333 854.833 333 855 333.001ZM855 337.001C854.833 337 854.667 337 854.5 337C761.44 337 686 412.44 686 505.5C686 598.56 761.44 674 854.5 674C854.667 674 854.833 674 855 673.999L855 337.001ZM857 673.982L857 337.018C948.907 338.355 1023 413.275 1023 505.5C1023 597.725 948.907 672.645 857 673.982ZM857 677.982C951.117 676.645 1027 599.934 1027 505.5C1027 411.066 951.117 334.355 857 333.018V2H1708V194H1437V364.256C1414.28 379.62 1395.58 400.248 1382.52 424.399C1369.07 449.287 1362.01 477.135 1362 505.429C1361.99 533.724 1369.02 561.577 1382.46 586.477C1395.52 610.68 1414.24 631.353 1437 646.744V818H1708V1008H857V677.982ZM0 1010V0H1710V1010H0ZM1708 814V653H1611V359H1708V198H1441V814H1708ZM1708 363H1615V649H1708V363ZM2 197V358H99V652H2V813H269V197H2ZM2 362V648H95V362H2ZM1437 644.324V366.676C1415.05 381.777 1396.97 401.881 1384.28 425.35C1370.98 449.947 1364.01 477.467 1364 505.43C1363.99 533.393 1370.94 560.919 1384.22 585.527C1396.91 609.048 1415.01 629.195 1437 644.324ZM273 643.324C294.991 628.195 313.089 608.048 325.783 584.527C339.064 559.919 346.012 532.393 346 504.43C345.988 476.467 339.018 448.947 325.717 424.35C313.026 400.881 294.952 380.777 273 365.676V643.324ZM177.5 501C175.015 501 173 503.015 173 505.5C173 507.985 175.015 510 177.5 510C179.985 510 182 507.985 182 505.5C182 503.015 179.985 501 177.5 501ZM169 505.5C169 500.806 172.806 497 177.5 497C182.194 497 186 500.806 186 505.5C186 510.194 182.194 514 177.5 514C172.806 514 169 510.194 169 505.5ZM1532.5 498C1537.19 498 1541 501.806 1541 506.5C1541 511.194 1537.19 515 1532.5 515C1527.81 515 1524 511.194 1524 506.5C1524 501.806 1527.81 498 1532.5 498ZM1537 506.5C1537 504.015 1534.99 502 1532.5 502C1530.01 502 1528 504.015 1528 506.5C1528 508.985 1530.01 511 1532.5 511C1534.99 511 1537 508.985 1537 506.5Z" fill="url(#paint0_radial_5_70)"/>
</mask>
<g mask="url(#mask0_5_70)">
<rect width="1710" height="1010" fill="url(#paint1_radial_5_70)"/>
</g>
<defs>
<radialGradient id="paint0_radial_5_70" cx="0" cy="0" r="1" gradientUnits="userSpaceOnUse" gradientTransform="translate(855 505) rotate(149.432) scale(993.001 1681.22)">
<stop offset="0.674141" stop-color="white" stop-opacity="0.1"/>
<stop offset="1" stop-color="white" stop-opacity="0.4"/>
</radialGradient>
<radialGradient id="paint1_radial_5_70" cx="0" cy="0" r="1" gradientUnits="userSpaceOnUse" gradientTransform="translate(855 505) rotate(90) scale(466.5 789.817)">
<stop stop-color="white" stop-opacity="0"/>
<stop offset="1" stop-color="#6E9440"/>
</radialGradient>
</defs>
</svg>
